{
    "asset" : {
        "generator" : "Khronos glTF Blender I/O v1.6.16",
        "version" : "2.0"
    },
    "scene" : 0,
    "scenes" : [
        {
            "name" : "Scene",
            "nodes" : [
                0
            ]
        }
    ],
    "nodes" : [
        {
            "mesh" : 0,
            "name" : "Curve.004"
        }
    ],
    "materials" : [
        {
            "doubleSided" : true,
            "name" : "SVGMat.004",
            "pbrMetallicRoughness" : {
                "baseColorFactor" : [
                    0,
                    0,
                    0,
                    1
                ],
                "metallicFactor" : 0,
                "roughnessFactor" : 0.4000000059604645
            }
        }
    ],
    "meshes" : [
        {
            "name" : "Curve.006",
            "primitives" : [
                {
                    "attributes" : {
                        "POSITION" : 0,
                        "NORMAL" : 1,
                        "TEXCOORD_0" : 2
                    },
                    "indices" : 3,
                    "material" : 0
                }
            ]
        }
    ],
    "accessors" : [
        {
            "bufferView" : 0,
            "componentType" : 5126,
            "count" : 6109,
            "max" : [
                0.9683564305305481,
                0.8652896881103516,
                0.1289512664079666
            ],
            "min" : [
                -0.924113929271698,
                -0.6083422899246216,
                -0.1289512664079666
            ],
            "type" : "VEC3"
        },
        {
            "bufferView" : 1,
            "componentType" : 5126,
            "count" : 6109,
            "type" : "VEC3"
        },
        {
            "bufferView" : 2,
            "componentType" : 5126,
            "count" : 6109,
            "type" : "VEC2"
        },
        {
            "bufferView" : 3,
            "componentType" : 5123,
            "count" : 10848,
            "type" : "SCALAR"
        }
    ],
    "bufferViews" : [
        {
            "buffer" : 0,
            "byteLength" : 73308,
            "byteOffset" : 0
        },
        {
            "buffer" : 0,
            "byteLength" : 73308,
            "byteOffset" : 73308
        },
        {
            "buffer" : 0,
            "byteLength" : 48872,
            "byteOffset" : 146616
        },
        {
            "buffer" : 0,
            "byteLength" : 21696,
            "byteOffset" : 195488
        }
    ],
    "buffers" : [
        {
            "byteLength" : 217184,
            "uri" : "data:application/octet-stream;base64,"
        }
    ]
}
