{
    "asset" : {
        "generator" : "Khronos glTF Blender I/O v1.6.16",
        "version" : "2.0"
    },
    "scene" : 0,
    "scenes" : [
        {
            "name" : "Scene",
            "nodes" : [
                0
            ]
        }
    ],
    "nodes" : [
        {
            "mesh" : 0,
            "name" : "Curve.003"
        }
    ],
    "materials" : [
        {
            "doubleSided" : true,
            "name" : "SVGMat.003",
            "pbrMetallicRoughness" : {
                "baseColorFactor" : [
                    0,
                    0,
                    0,
                    1
                ],
                "metallicFactor" : 0,
                "roughnessFactor" : 0.4000000059604645
            }
        }
    ],
    "meshes" : [
        {
            "name" : "Curve.005",
            "primitives" : [
                {
                    "attributes" : {
                        "POSITION" : 0,
                        "NORMAL" : 1,
                        "TEXCOORD_0" : 2
                    },
                    "indices" : 3,
                    "material" : 0
                }
            ]
        }
    ],
    "accessors" : [
        {
            "bufferView" : 0,
            "componentType" : 5126,
            "count" : 3232,
            "max" : [
                1.294440746307373,
                0.9671781063079834,
                0.14567340910434723
            ],
            "min" : [
                -0.842484176158905,
                -1.1692246198654175,
                -0.14567340910434723
            ],
            "type" : "VEC3"
        },
        {
            "bufferView" : 1,
            "componentType" : 5126,
            "count" : 3232,
            "type" : "VEC3"
        },
        {
            "bufferView" : 2,
            "componentType" : 5126,
            "count" : 3232,
            "type" : "VEC2"
        },
        {
            "bufferView" : 3,
            "componentType" : 5123,
            "count" : 6060,
            "type" : "SCALAR"
        }
    ],
    "bufferViews" : [
        {
            "buffer" : 0,
            "byteLength" : 38784,
            "byteOffset" : 0
        },
        {
            "buffer" : 0,
            "byteLength" : 38784,
            "byteOffset" : 38784
        },
        {
            "buffer" : 0,
            "byteLength" : 25856,
            "byteOffset" : 77568
        },
        {
            "buffer" : 0,
            "byteLength" : 12120,
            "byteOffset" : 103424
        }
    ],
    "buffers" : [
        {
            "byteLength" : 115544,
            "uri" : "data:application/octet-stream;base64,"
        }
    ]
}
