{
    "asset" : {
        "generator" : "Khronos glTF Blender I/O v1.6.16",
        "version" : "2.0"
    },
    "scene" : 0,
    "scenes" : [
        {
            "name" : "Scene",
            "nodes" : [
                0
            ]
        }
    ],
    "nodes" : [
        {
            "mesh" : 0,
            "name" : "Curve.006"
        }
    ],
    "materials" : [
        {
            "doubleSided" : true,
            "name" : "SVGMat.006",
            "pbrMetallicRoughness" : {
                "baseColorFactor" : [
                    0,
                    0,
                    0,
                    1
                ],
                "metallicFactor" : 0,
                "roughnessFactor" : 0.4000000059604645
            }
        }
    ],
    "meshes" : [
        {
            "name" : "Curve.008",
            "primitives" : [
                {
                    "attributes" : {
                        "POSITION" : 0,
                        "NORMAL" : 1,
                        "TEXCOORD_0" : 2
                    },
                    "indices" : 3,
                    "material" : 0
                }
            ]
        }
    ],
    "accessors" : [
        {
            "bufferView" : 0,
            "componentType" : 5126,
            "count" : 2746,
            "max" : [
                1.322384238243103,
                1.3776074647903442,
                0.17582711577415466
            ],
            "min" : [
                -1.2580289840698242,
                -0.5115568041801453,
                -0.17582711577415466
            ],
            "type" : "VEC3"
        },
        {
            "bufferView" : 1,
            "componentType" : 5126,
            "count" : 2746,
            "type" : "VEC3"
        },
        {
            "bufferView" : 2,
            "componentType" : 5126,
            "count" : 2746,
            "type" : "VEC2"
        },
        {
            "bufferView" : 3,
            "componentType" : 5123,
            "count" : 5160,
            "type" : "SCALAR"
        }
    ],
    "bufferViews" : [
        {
            "buffer" : 0,
            "byteLength" : 32952,
            "byteOffset" : 0
        },
        {
            "buffer" : 0,
            "byteLength" : 32952,
            "byteOffset" : 32952
        },
        {
            "buffer" : 0,
            "byteLength" : 21968,
            "byteOffset" : 65904
        },
        {
            "buffer" : 0,
            "byteLength" : 10320,
            "byteOffset" : 87872
        }
    ],
    "buffers" : [
        {
            "byteLength" : 98192,
            "uri" : "data:application/octet-stream;base64,"
        }
    ]
}
