{
    "asset" : {
        "generator" : "Khronos glTF Blender I/O v1.6.16",
        "version" : "2.0"
    },
    "scene" : 0,
    "scenes" : [
        {
            "name" : "Scene",
            "nodes" : [
                0
            ]
        }
    ],
    "nodes" : [
        {
            "mesh" : 0,
            "name" : "Curve.005"
        }
    ],
    "materials" : [
        {
            "doubleSided" : true,
            "name" : "SVGMat.005",
            "pbrMetallicRoughness" : {
                "baseColorFactor" : [
                    0,
                    0,
                    0,
                    1
                ],
                "metallicFactor" : 0,
                "roughnessFactor" : 0.4000000059604645
            }
        }
    ],
    "meshes" : [
        {
            "name" : "Curve.007",
            "primitives" : [
                {
                    "attributes" : {
                        "POSITION" : 0,
                        "NORMAL" : 1,
                        "TEXCOORD_0" : 2
                    },
                    "indices" : 3,
                    "material" : 0
                }
            ]
        }
    ],
    "accessors" : [
        {
            "bufferView" : 0,
            "componentType" : 5126,
            "count" : 2944,
            "max" : [
                1.075825572013855,
                1.1596506834030151,
                0.13401302695274353
            ],
            "min" : [
                -0.891551673412323,
                -0.8087466955184937,
                -0.13401302695274353
            ],
            "type" : "VEC3"
        },
        {
            "bufferView" : 1,
            "componentType" : 5126,
            "count" : 2944,
            "type" : "VEC3"
        },
        {
            "bufferView" : 2,
            "componentType" : 5126,
            "count" : 2944,
            "type" : "VEC2"
        },
        {
            "bufferView" : 3,
            "componentType" : 5123,
            "count" : 5172,
            "type" : "SCALAR"
        }
    ],
    "bufferViews" : [
        {
            "buffer" : 0,
            "byteLength" : 35328,
            "byteOffset" : 0
        },
        {
            "buffer" : 0,
            "byteLength" : 35328,
            "byteOffset" : 35328
        },
        {
            "buffer" : 0,
            "byteLength" : 23552,
            "byteOffset" : 70656
        },
        {
            "buffer" : 0,
            "byteLength" : 10344,
            "byteOffset" : 94208
        }
    ],
    "buffers" : [
        {
            "byteLength" : 104552,
            "uri" : "data:application/octet-stream;base64,"
        }
    ]
}
