{
    "asset" : {
        "generator" : "Khronos glTF Blender I/O v1.6.16",
        "version" : "2.0"
    },
    "scene" : 0,
    "scenes" : [
        {
            "extras" : {
                "glTF2ExportSettings" : {
                    "export_animations" : 0,
                    "export_apply" : 1,
                    "export_extras" : 1,
                    "export_format" : "GLTF_EMBEDDED",
                    "export_morph" : 0,
                    "export_skins" : 0,
                    "export_tangents" : 1,
                    "use_active_collection" : 0,
                    "use_mesh_edges" : 0,
                    "use_mesh_vertices" : 1,
                    "use_renderable" : 0,
                    "use_selection" : 1,
                    "use_visible" : 0
                }
            },
            "name" : "Scene",
            "nodes" : [
                0
            ]
        }
    ],
    "nodes" : [
        {
            "mesh" : 0,
            "name" : "Hotdog",
            "rotation" : [
                0.7071068286895752,
                0,
                0,
                0.7071067094802856
            ],
            "scale" : [
                0.009999999776482582,
                0.009999999776482582,
                0.009999999776482582
            ],
            "translation" : [
                -2.3075833320617676,
                0,
                -3.6048197746276855
            ]
        }
    ],
    "materials" : [
        {
            "doubleSided" : true,
            "name" : "Hotdog",
            "pbrMetallicRoughness" : {
                "baseColorFactor" : [
                    1,
                    1,
                    1,
                    0
                ],
                "metallicFactor" : 0,
                "roughnessFactor" : 0.6932139992713928
            }
        }
    ],
    "meshes" : [
        {
            "name" : "Sphere",
            "primitives" : [
                {
                    "attributes" : {
                        "POSITION" : 0,
                        "NORMAL" : 1,
                        "TANGENT" : 2,
                        "TEXCOORD_0" : 3
                    },
                    "indices" : 4,
                    "material" : 0
                }
            ]
        }
    ],
    "accessors" : [
        {
            "bufferView" : 0,
            "componentType" : 5126,
            "count" : 636,
            "max" : [
                198.3812255859375,
                83.95711517333984,
                -0.4824950695037842
            ],
            "min" : [
                -198.268798828125,
                -83.95710754394531,
                -87.2728500366211
            ],
            "type" : "VEC3"
        },
        {
            "bufferView" : 1,
            "componentType" : 5126,
            "count" : 636,
            "type" : "VEC3"
        },
        {
            "bufferView" : 2,
            "componentType" : 5126,
            "count" : 636,
            "type" : "VEC4"
        },
        {
            "bufferView" : 3,
            "componentType" : 5126,
            "count" : 636,
            "type" : "VEC2"
        },
        {
            "bufferView" : 4,
            "componentType" : 5123,
            "count" : 2166,
            "type" : "SCALAR"
        }
    ],
    "bufferViews" : [
        {
            "buffer" : 0,
            "byteLength" : 7632,
            "byteOffset" : 0
        },
        {
            "buffer" : 0,
            "byteLength" : 7632,
            "byteOffset" : 7632
        },
        {
            "buffer" : 0,
            "byteLength" : 10176,
            "byteOffset" : 15264
        },
        {
            "buffer" : 0,
            "byteLength" : 5088,
            "byteOffset" : 25440
        },
        {
            "buffer" : 0,
            "byteLength" : 4332,
            "byteOffset" : 30528
        }
    ],
    "buffers" : [
        {
            "byteLength" : 34860,
            "uri" : "data:application/octet-stream;base64,"
        }
    ]
}
