{
    "asset" : {
        "generator" : "Khronos glTF Blender I/O v1.6.16",
        "version" : "2.0"
    },
    "scene" : 0,
    "scenes" : [
        {
            "name" : "Scene",
            "nodes" : [
                0
            ]
        }
    ],
    "nodes" : [
        {
            "mesh" : 0,
            "name" : "Curve.002"
        }
    ],
    "materials" : [
        {
            "doubleSided" : true,
            "name" : "SVGMat.002",
            "pbrMetallicRoughness" : {
                "baseColorFactor" : [
                    0,
                    0,
                    0,
                    1
                ],
                "metallicFactor" : 0,
                "roughnessFactor" : 0.4000000059604645
            }
        }
    ],
    "meshes" : [
        {
            "name" : "Curve.003",
            "primitives" : [
                {
                    "attributes" : {
                        "POSITION" : 0,
                        "NORMAL" : 1,
                        "TEXCOORD_0" : 2
                    },
                    "indices" : 3,
                    "material" : 0
                }
            ]
        }
    ],
    "accessors" : [
        {
            "bufferView" : 0,
            "componentType" : 5126,
            "count" : 11412,
            "max" : [
                0.847689688205719,
                0.8016196489334106,
                0.11571570485830307
            ],
            "min" : [
                -0.8505370616912842,
                -0.896248459815979,
                -0.11571570485830307
            ],
            "type" : "VEC3"
        },
        {
            "bufferView" : 1,
            "componentType" : 5126,
            "count" : 11412,
            "type" : "VEC3"
        },
        {
            "bufferView" : 2,
            "componentType" : 5126,
            "count" : 11412,
            "type" : "VEC2"
        },
        {
            "bufferView" : 3,
            "componentType" : 5123,
            "count" : 19452,
            "type" : "SCALAR"
        }
    ],
    "bufferViews" : [
        {
            "buffer" : 0,
            "byteLength" : 136944,
            "byteOffset" : 0
        },
        {
            "buffer" : 0,
            "byteLength" : 136944,
            "byteOffset" : 136944
        },
        {
            "buffer" : 0,
            "byteLength" : 91296,
            "byteOffset" : 273888
        },
        {
            "buffer" : 0,
            "byteLength" : 38904,
            "byteOffset" : 365184
        }
    ],
    "buffers" : [
        {
            "byteLength" : 404088,
            "uri" : "data:application/octet-stream;base64,"
        }
    ]
}
