{
    "asset" : {
        "generator" : "Khronos glTF Blender I/O v1.6.16",
        "version" : "2.0"
    },
    "scene" : 0,
    "scenes" : [
        {
            "name" : "Scene",
            "nodes" : [
                0
            ]
        }
    ],
    "nodes" : [
        {
            "mesh" : 0,
            "name" : "Curve.001"
        }
    ],
    "materials" : [
        {
            "doubleSided" : true,
            "name" : "SVGMat.001",
            "pbrMetallicRoughness" : {
                "baseColorFactor" : [
                    0,
                    0,
                    0,
                    1
                ],
                "metallicFactor" : 0,
                "roughnessFactor" : 0.4000000059604645
            }
        }
    ],
    "meshes" : [
        {
            "name" : "Curve.001",
            "primitives" : [
                {
                    "attributes" : {
                        "POSITION" : 0,
                        "NORMAL" : 1,
                        "TEXCOORD_0" : 2
                    },
                    "indices" : 3,
                    "material" : 0
                }
            ]
        }
    ],
    "accessors" : [
        {
            "bufferView" : 0,
            "componentType" : 5126,
            "count" : 2761,
            "max" : [
                0.9131516814231873,
                1.9507596492767334,
                0.2788824439048767
            ],
            "min" : [
                -0.9233782887458801,
                -0.7719767689704895,
                -0.2788824439048767
            ],
            "type" : "VEC3"
        },
        {
            "bufferView" : 1,
            "componentType" : 5126,
            "count" : 2761,
            "type" : "VEC3"
        },
        {
            "bufferView" : 2,
            "componentType" : 5126,
            "count" : 2761,
            "type" : "VEC2"
        },
        {
            "bufferView" : 3,
            "componentType" : 5123,
            "count" : 4812,
            "type" : "SCALAR"
        }
    ],
    "bufferViews" : [
        {
            "buffer" : 0,
            "byteLength" : 33132,
            "byteOffset" : 0
        },
        {
            "buffer" : 0,
            "byteLength" : 33132,
            "byteOffset" : 33132
        },
        {
            "buffer" : 0,
            "byteLength" : 22088,
            "byteOffset" : 66264
        },
        {
            "buffer" : 0,
            "byteLength" : 9624,
            "byteOffset" : 88352
        }
    ],
    "buffers" : [
        {
            "byteLength" : 97976,
            "uri" : "data:application/octet-stream;base64,"
        }
    ]
}
