{
    "asset" : {
        "generator" : "Khronos glTF Blender I/O v1.6.16",
        "version" : "2.0"
    },
    "scene" : 0,
    "scenes" : [
        {
            "name" : "Scene",
            "nodes" : [
                0
            ]
        }
    ],
    "nodes" : [
        {
            "mesh" : 0,
            "name" : "Curve"
        }
    ],
    "materials" : [
        {
            "doubleSided" : true,
            "name" : "SVGMat",
            "pbrMetallicRoughness" : {
                "baseColorFactor" : [
                    0,
                    0,
                    0,
                    1
                ],
                "metallicFactor" : 0,
                "roughnessFactor" : 0.4000000059604645
            }
        }
    ],
    "meshes" : [
        {
            "name" : "Curve",
            "primitives" : [
                {
                    "attributes" : {
                        "POSITION" : 0,
                        "NORMAL" : 1,
                        "TEXCOORD_0" : 2
                    },
                    "indices" : 3,
                    "material" : 0
                }
            ]
        }
    ],
    "accessors" : [
        {
            "bufferView" : 0,
            "componentType" : 5126,
            "count" : 3244,
            "max" : [
                1.1406174898147583,
                1.5052597522735596,
                0.22866490483283997
            ],
            "min" : [
                -1.092315435409546,
                -0.6712826490402222,
                -0.22866490483283997
            ],
            "type" : "VEC3"
        },
        {
            "bufferView" : 1,
            "componentType" : 5126,
            "count" : 3244,
            "type" : "VEC3"
        },
        {
            "bufferView" : 2,
            "componentType" : 5126,
            "count" : 3244,
            "type" : "VEC2"
        },
        {
            "bufferView" : 3,
            "componentType" : 5123,
            "count" : 6276,
            "type" : "SCALAR"
        }
    ],
    "bufferViews" : [
        {
            "buffer" : 0,
            "byteLength" : 38928,
            "byteOffset" : 0
        },
        {
            "buffer" : 0,
            "byteLength" : 38928,
            "byteOffset" : 38928
        },
        {
            "buffer" : 0,
            "byteLength" : 25952,
            "byteOffset" : 77856
        },
        {
            "buffer" : 0,
            "byteLength" : 12552,
            "byteOffset" : 103808
        }
    ],
    "buffers" : [
        {
            "byteLength" : 116360,
            "uri" : "data:application/octet-stream;base64,"
        }
    ]
}
