{
    "asset" : {
        "generator" : "Khronos glTF Blender I/O v1.6.16",
        "version" : "2.0"
    },
    "scene" : 0,
    "scenes" : [
        {
            "name" : "Scene",
            "nodes" : [
                0,
                1,
                2,
                3
            ]
        }
    ],
    "nodes" : [
        {
            "mesh" : 0,
            "name" : "Curve.016"
        },
        {
            "mesh" : 1,
            "name" : "Curve.017"
        },
        {
            "mesh" : 2,
            "name" : "Curve.018"
        },
        {
            "mesh" : 3,
            "name" : "Curve.019"
        }
    ],
    "materials" : [
        {
            "doubleSided" : true,
            "name" : "SVGMat.033",
            "pbrMetallicRoughness" : {
                "baseColorFactor" : [
                    0.8227857351303101,
                    0.8227857351303101,
                    0.8227857351303101,
                    1
                ],
                "metallicFactor" : 0,
                "roughnessFactor" : 0.4000000059604645
            }
        },
        {
            "doubleSided" : true,
            "name" : "SVGMat.034",
            "pbrMetallicRoughness" : {
                "baseColorFactor" : [
                    0.5088813304901123,
                    0.21223075687885284,
                    0,
                    1
                ],
                "metallicFactor" : 0,
                "roughnessFactor" : 0.4000000059604645
            }
        },
        {
            "doubleSided" : true,
            "name" : "SVGMat.035",
            "pbrMetallicRoughness" : {
                "baseColorFactor" : [
                    0.026241222396492958,
                    0.026241222396492958,
                    0.026241222396492958,
                    1
                ],
                "metallicFactor" : 0,
                "roughnessFactor" : 0.4000000059604645
            }
        },
        {
            "doubleSided" : true,
            "name" : "SVGMat.036",
            "pbrMetallicRoughness" : {
                "baseColorFactor" : [
                    0.026241222396492958,
                    0.026241222396492958,
                    0.026241222396492958,
                    1
                ],
                "metallicFactor" : 0,
                "roughnessFactor" : 0.4000000059604645
            }
        }
    ],
    "meshes" : [
        {
            "name" : "Curve.032",
            "primitives" : [
                {
                    "attributes" : {
                        "POSITION" : 0
                    },
                    "indices" : 1,
                    "material" : 0
                }
            ]
        },
        {
            "name" : "Curve.033",
            "primitives" : [
                {
                    "attributes" : {
                        "POSITION" : 2
                    },
                    "indices" : 3,
                    "material" : 1
                }
            ]
        },
        {
            "name" : "Curve.034",
            "primitives" : [
                {
                    "attributes" : {
                        "POSITION" : 4
                    },
                    "indices" : 5,
                    "material" : 2
                }
            ]
        },
        {
            "name" : "Curve.035",
            "primitives" : [
                {
                    "attributes" : {
                        "POSITION" : 6
                    },
                    "indices" : 5,
                    "material" : 3
                }
            ]
        }
    ],
    "accessors" : [
        {
            "bufferView" : 0,
            "componentType" : 5126,
            "count" : 2308,
            "max" : [
                0.0070187728852033615,
                0.00979837216436863,
                0.004999999888241291
            ],
            "min" : [
                -0.007092626765370369,
                -0.004311996046453714,
                -0.004999999888241291
            ],
            "type" : "VEC3"
        },
        {
            "bufferView" : 1,
            "componentType" : 5123,
            "count" : 6912,
            "type" : "SCALAR"
        },
        {
            "bufferView" : 2,
            "componentType" : 5126,
            "count" : 440,
            "max" : [
                0.002068921225145459,
                0.0012949006631970406,
                0.006000000052154064
            ],
            "min" : [
                -0.0024768090806901455,
                -0.0024317195639014244,
                -0.006000000052154064
            ],
            "type" : "VEC3"
        },
        {
            "bufferView" : 3,
            "componentType" : 5123,
            "count" : 1308,
            "type" : "SCALAR"
        },
        {
            "bufferView" : 4,
            "componentType" : 5126,
            "count" : 192,
            "max" : [
                0.0004233419895172119,
                0.00042325258255004883,
                0.006000000052154064
            ],
            "min" : [
                -0.0004233419895172119,
                -0.00042325258255004883,
                -0.006000000052154064
            ],
            "type" : "VEC3"
        },
        {
            "bufferView" : 5,
            "componentType" : 5123,
            "count" : 564,
            "type" : "SCALAR"
        },
        {
            "bufferView" : 6,
            "componentType" : 5126,
            "count" : 192,
            "max" : [
                0.0004233424551784992,
                0.00042325258255004883,
                0.006000000052154064
            ],
            "min" : [
                -0.0004233415238559246,
                -0.00042325258255004883,
                -0.006000000052154064
            ],
            "type" : "VEC3"
        }
    ],
    "bufferViews" : [
        {
            "buffer" : 0,
            "byteLength" : 27696,
            "byteOffset" : 0
        },
        {
            "buffer" : 0,
            "byteLength" : 13824,
            "byteOffset" : 27696
        },
        {
            "buffer" : 0,
            "byteLength" : 5280,
            "byteOffset" : 41520
        },
        {
            "buffer" : 0,
            "byteLength" : 2616,
            "byteOffset" : 46800
        },
        {
            "buffer" : 0,
            "byteLength" : 2304,
            "byteOffset" : 49416
        },
        {
            "buffer" : 0,
            "byteLength" : 1128,
            "byteOffset" : 51720
        },
        {
            "buffer" : 0,
            "byteLength" : 2304,
            "byteOffset" : 52848
        }
    ],
    "buffers" : [
        {
            "byteLength" : 55152,
            "uri" : "bird.bin"
        }
    ]
}
