{
    "asset" : {
        "generator" : "Khronos glTF Blender I/O v1.6.16",
        "version" : "2.0"
    },
    "scene" : 0,
    "scenes" : [
        {
            "name" : "Scene",
            "nodes" : [
                0,
                1,
                2,
                3,
                4,
                5,
                6,
                7,
                8
            ]
        }
    ],
    "nodes" : [
        {
            "mesh" : 0,
            "name" : "Curve"
        },
        {
            "mesh" : 1,
            "name" : "Curve.001"
        },
        {
            "mesh" : 2,
            "name" : "Curve.002"
        },
        {
            "mesh" : 3,
            "name" : "Curve.003"
        },
        {
            "mesh" : 4,
            "name" : "Curve.004"
        },
        {
            "mesh" : 5,
            "name" : "Curve.005"
        },
        {
            "mesh" : 6,
            "name" : "Curve.006"
        },
        {
            "mesh" : 7,
            "name" : "Curve.007"
        },
        {
            "mesh" : 8,
            "name" : "Curve.008"
        }
    ],
    "materials" : [
        {
            "doubleSided" : true,
            "name" : "SVGMat.001",
            "pbrMetallicRoughness" : {
                "baseColorFactor" : [
                    1,
                    0.5583403706550598,
                    0.03310476616024971,
                    1
                ],
                "metallicFactor" : 0,
                "roughnessFactor" : 0.4000000059604645
            }
        },
        {
            "doubleSided" : true,
            "name" : "SVGMat.002",
            "pbrMetallicRoughness" : {
                "baseColorFactor" : [
                    1,
                    0.5583403706550598,
                    0.03310476616024971,
                    1
                ],
                "metallicFactor" : 0,
                "roughnessFactor" : 0.4000000059604645
            }
        },
        {
            "doubleSided" : true,
            "name" : "Material",
            "pbrMetallicRoughness" : {
                "baseColorFactor" : [
                    0.800000011920929,
                    0.800000011920929,
                    0.800000011920929,
                    1
                ],
                "metallicFactor" : 0,
                "roughnessFactor" : 0.4000000059604645
            }
        },
        {
            "doubleSided" : true,
            "name" : "SVGMat",
            "pbrMetallicRoughness" : {
                "baseColorFactor" : [
                    0,
                    0,
                    0,
                    1
                ],
                "metallicFactor" : 0,
                "roughnessFactor" : 0.4000000059604645
            }
        },
        {
            "doubleSided" : true,
            "name" : "SVGMat.003",
            "pbrMetallicRoughness" : {
                "baseColorFactor" : [
                    0.8227857351303101,
                    0.13563333451747894,
                    0.019382361322641373,
                    1
                ],
                "metallicFactor" : 0,
                "roughnessFactor" : 0.4000000059604645
            }
        }
    ],
    "meshes" : [
        {
            "name" : "Curve",
            "primitives" : [
                {
                    "attributes" : {
                        "POSITION" : 0
                    },
                    "indices" : 1,
                    "material" : 0
                }
            ]
        },
        {
            "name" : "Curve.001",
            "primitives" : [
                {
                    "attributes" : {
                        "POSITION" : 2
                    },
                    "indices" : 3,
                    "material" : 1
                }
            ]
        },
        {
            "name" : "Curve.002",
            "primitives" : [
                {
                    "attributes" : {
                        "POSITION" : 4
                    },
                    "indices" : 5,
                    "material" : 2
                }
            ]
        },
        {
            "name" : "Curve.003",
            "primitives" : [
                {
                    "attributes" : {
                        "POSITION" : 6
                    },
                    "indices" : 7,
                    "material" : 3
                }
            ]
        },
        {
            "name" : "Curve.004",
            "primitives" : [
                {
                    "attributes" : {
                        "POSITION" : 8
                    },
                    "indices" : 9,
                    "material" : 2
                }
            ]
        },
        {
            "name" : "Curve.005",
            "primitives" : [
                {
                    "attributes" : {
                        "POSITION" : 10
                    },
                    "indices" : 11,
                    "material" : 3
                }
            ]
        },
        {
            "name" : "Curve.006",
            "primitives" : [
                {
                    "attributes" : {
                        "POSITION" : 12
                    },
                    "indices" : 13,
                    "material" : 4
                }
            ]
        },
        {
            "name" : "Curve.007",
            "primitives" : [
                {
                    "attributes" : {
                        "POSITION" : 14
                    },
                    "indices" : 15,
                    "material" : 3
                }
            ]
        },
        {
            "name" : "Curve.008",
            "primitives" : [
                {
                    "attributes" : {
                        "POSITION" : 16
                    },
                    "indices" : 17,
                    "material" : 3
                }
            ]
        }
    ],
    "accessors" : [
        {
            "bufferView" : 0,
            "componentType" : 5126,
            "count" : 60,
            "max" : [
                0.003254840150475502,
                0.002106662839651108,
                0
            ],
            "min" : [
                -0.004029463976621628,
                -0.00233051972463727,
                0
            ],
            "type" : "VEC3"
        },
        {
            "bufferView" : 1,
            "componentType" : 5123,
            "count" : 174,
            "type" : "SCALAR"
        },
        {
            "bufferView" : 2,
            "componentType" : 5126,
            "count" : 288,
            "max" : [
                0.017283644527196884,
                0.0173506923019886,
                0.0020000000949949026
            ],
            "min" : [
                -0.017283642664551735,
                -0.016836833208799362,
                -0.0020000000949949026
            ],
            "type" : "VEC3"
        },
        {
            "bufferView" : 3,
            "componentType" : 5123,
            "count" : 852,
            "type" : "SCALAR"
        },
        {
            "bufferView" : 4,
            "componentType" : 5126,
            "count" : 192,
            "max" : [
                0.002923322143033147,
                0.004454184789210558,
                0.003000000026077032
            ],
            "min" : [
                -0.0029233235400170088,
                -0.004454183392226696,
                -0.003000000026077032
            ],
            "type" : "VEC3"
        },
        {
            "bufferView" : 5,
            "componentType" : 5123,
            "count" : 564,
            "type" : "SCALAR"
        },
        {
            "bufferView" : 6,
            "componentType" : 5126,
            "count" : 192,
            "max" : [
                0.001536491559818387,
                0.001951501122675836,
                0.004999999888241291
            ],
            "min" : [
                -0.0015364930732175708,
                -0.0019515067106112838,
                -0.004999999888241291
            ],
            "type" : "VEC3"
        },
        {
            "bufferView" : 7,
            "componentType" : 5123,
            "count" : 564,
            "type" : "SCALAR"
        },
        {
            "bufferView" : 8,
            "componentType" : 5126,
            "count" : 192,
            "max" : [
                0.002923322841525078,
                0.0044541857205331326,
                0.003000000026077032
            ],
            "min" : [
                -0.002923320047557354,
                -0.004454185254871845,
                -0.003000000026077032
            ],
            "type" : "VEC3"
        },
        {
            "bufferView" : 9,
            "componentType" : 5123,
            "count" : 564,
            "type" : "SCALAR"
        },
        {
            "bufferView" : 10,
            "componentType" : 5126,
            "count" : 192,
            "max" : [
                0.001536490977741778,
                0.0019515013555064797,
                0.004999999888241291
            ],
            "min" : [
                -0.001536491559818387,
                -0.0019515064777806401,
                -0.004999999888241291
            ],
            "type" : "VEC3"
        },
        {
            "bufferView" : 11,
            "componentType" : 5123,
            "count" : 564,
            "type" : "SCALAR"
        },
        {
            "bufferView" : 12,
            "componentType" : 5126,
            "count" : 384,
            "max" : [
                0.014815306290984154,
                0.006661642342805862,
                0.004999999888241291
            ],
            "min" : [
                -0.01437650341540575,
                -0.01095695048570633,
                -0.004999999888241291
            ],
            "type" : "VEC3"
        },
        {
            "bufferView" : 13,
            "componentType" : 5123,
            "count" : 1140,
            "type" : "SCALAR"
        },
        {
            "bufferView" : 14,
            "componentType" : 5126,
            "count" : 192,
            "max" : [
                0.0012183935614302754,
                0.0014986814931035042,
                0.00800000037997961
            ],
            "min" : [
                -0.00121065485291183,
                -0.0017028485890477896,
                -0.00800000037997961
            ],
            "type" : "VEC3"
        },
        {
            "bufferView" : 15,
            "componentType" : 5123,
            "count" : 564,
            "type" : "SCALAR"
        },
        {
            "bufferView" : 16,
            "componentType" : 5126,
            "count" : 192,
            "max" : [
                0.0012106511276215315,
                0.0014986814931035042,
                0.00800000037997961
            ],
            "min" : [
                -0.001218397286720574,
                -0.0017028485890477896,
                -0.00800000037997961
            ],
            "type" : "VEC3"
        },
        {
            "bufferView" : 17,
            "componentType" : 5123,
            "count" : 564,
            "type" : "SCALAR"
        }
    ],
    "bufferViews" : [
        {
            "buffer" : 0,
            "byteLength" : 720,
            "byteOffset" : 0
        },
        {
            "buffer" : 0,
            "byteLength" : 348,
            "byteOffset" : 720
        },
        {
            "buffer" : 0,
            "byteLength" : 3456,
            "byteOffset" : 1068
        },
        {
            "buffer" : 0,
            "byteLength" : 1704,
            "byteOffset" : 4524
        },
        {
            "buffer" : 0,
            "byteLength" : 2304,
            "byteOffset" : 6228
        },
        {
            "buffer" : 0,
            "byteLength" : 1128,
            "byteOffset" : 8532
        },
        {
            "buffer" : 0,
            "byteLength" : 2304,
            "byteOffset" : 9660
        },
        {
            "buffer" : 0,
            "byteLength" : 1128,
            "byteOffset" : 11964
        },
        {
            "buffer" : 0,
            "byteLength" : 2304,
            "byteOffset" : 13092
        },
        {
            "buffer" : 0,
            "byteLength" : 1128,
            "byteOffset" : 15396
        },
        {
            "buffer" : 0,
            "byteLength" : 2304,
            "byteOffset" : 16524
        },
        {
            "buffer" : 0,
            "byteLength" : 1128,
            "byteOffset" : 18828
        },
        {
            "buffer" : 0,
            "byteLength" : 4608,
            "byteOffset" : 19956
        },
        {
            "buffer" : 0,
            "byteLength" : 2280,
            "byteOffset" : 24564
        },
        {
            "buffer" : 0,
            "byteLength" : 2304,
            "byteOffset" : 26844
        },
        {
            "buffer" : 0,
            "byteLength" : 1128,
            "byteOffset" : 29148
        },
        {
            "buffer" : 0,
            "byteLength" : 2304,
            "byteOffset" : 30276
        },
        {
            "buffer" : 0,
            "byteLength" : 1128,
            "byteOffset" : 32580
        }
    ],
    "buffers" : [
        {
            "byteLength" : 33708,
            "uri" : "data:application/octet-stream;base64,"
        }
    ]
}
