{
    "asset" : {
        "generator" : "Khronos glTF Blender I/O v1.6.16",
        "version" : "2.0"
    },
    "scene" : 0,
    "scenes" : [
        {
            "name" : "Scene",
            "nodes" : [
                0
            ]
        }
    ],
    "nodes" : [
        {
            "mesh" : 0,
            "name" : "Curve.010",
            "scale" : [
                154.54458618164062,
                154.54458618164062,
                154.54458618164062
            ],
            "translation" : [
                -3.9249658584594727e-05,
                -4.029273986816406e-05,
                -0.02323191426694393
            ]
        }
    ],
    "materials" : [
        {
            "doubleSided" : true,
            "name" : "SVGMat.004",
            "pbrMetallicRoughness" : {
                "baseColorFactor" : [
                    0,
                    0.35055553913116455,
                    0.0029283149633556604,
                    1
                ],
                "metallicFactor" : 0,
                "roughnessFactor" : 0
            }
        }
    ],
    "meshes" : [
        {
            "name" : "Curve.010",
            "primitives" : [
                {
                    "attributes" : {
                        "POSITION" : 0
                    },
                    "indices" : 1,
                    "material" : 0
                }
            ]
        }
    ],
    "accessors" : [
        {
            "bufferView" : 0,
            "componentType" : 5126,
            "count" : 7732,
            "max" : [
                0.053037721663713455,
                0.14438562095165253,
                0.009999999776482582
            ],
            "min" : [
                -0.08125080168247223,
                -0.08215537667274475,
                -0.009999999776482582
            ],
            "type" : "VEC3"
        },
        {
            "bufferView" : 1,
            "componentType" : 5123,
            "count" : 23232,
            "type" : "SCALAR"
        }
    ],
    "bufferViews" : [
        {
            "buffer" : 0,
            "byteLength" : 92784,
            "byteOffset" : 0
        },
        {
            "buffer" : 0,
            "byteLength" : 46464,
            "byteOffset" : 92784
        }
    ],
    "buffers" : [
        {
            "byteLength" : 139248,
            "uri" : "data:application/octet-stream;base64,"
        }
    ]
}
