{
    "asset" : {
        "generator" : "Khronos glTF Blender I/O v1.6.16",
        "version" : "2.0"
    },
    "scene" : 0,
    "scenes" : [
        {
            "name" : "Scene",
            "nodes" : [
                0
            ]
        }
    ],
    "nodes" : [
        {
            "mesh" : 0,
            "name" : "Curve.013"
        }
    ],
    "materials" : [
        {
            "doubleSided" : true,
            "name" : "SVGMat.014",
            "pbrMetallicRoughness" : {
                "baseColorFactor" : [
                    0.05222076177597046,
                    1,
                    1,
                    1
                ],
                "metallicFactor" : 0,
                "roughnessFactor" : 0.4000000059604645
            }
        }
    ],
    "meshes" : [
        {
            "name" : "Curve.018",
            "primitives" : [
                {
                    "attributes" : {
                        "POSITION" : 0
                    },
                    "indices" : 1,
                    "material" : 0
                }
            ]
        }
    ],
    "accessors" : [
        {
            "bufferView" : 0,
            "componentType" : 5126,
            "count" : 11856,
            "max" : [
                1.8399393558502197,
                1.9303842782974243,
                0.6700165867805481
            ],
            "min" : [
                -1.8726277351379395,
                -1.9165180921554565,
                -0.6700165867805481
            ],
            "type" : "VEC3"
        },
        {
            "bufferView" : 1,
            "componentType" : 5123,
            "count" : 35568,
            "type" : "SCALAR"
        }
    ],
    "bufferViews" : [
        {
            "buffer" : 0,
            "byteLength" : 142272,
            "byteOffset" : 0
        },
        {
            "buffer" : 0,
            "byteLength" : 71136,
            "byteOffset" : 142272
        }
    ],
    "buffers" : [
        {
            "byteLength" : 213408,
            "uri" : "data:application/octet-stream;base64,"
        }
    ]
}
