{
    "asset" : {
        "generator" : "Khronos glTF Blender I/O v1.6.16",
        "version" : "2.0"
    },
    "scene" : 0,
    "scenes" : [
        {
            "name" : "Scene",
            "nodes" : [
                0,
                1
            ]
        }
    ],
    "nodes" : [
        {
            "mesh" : 0,
            "name" : "Curve.009"
        },
        {
            "mesh" : 1,
            "name" : "Curve.012"
        }
    ],
    "materials" : [
        {
            "doubleSided" : true,
            "name" : "SVGMat.015",
            "pbrMetallicRoughness" : {
                "baseColorFactor" : [
                    0,
                    1,
                    1,
                    1
                ],
                "metallicFactor" : 0,
                "roughnessFactor" : 0.4000000059604645
            }
        }
    ],
    "meshes" : [
        {
            "name" : "Curve.019",
            "primitives" : [
                {
                    "attributes" : {
                        "POSITION" : 0
                    },
                    "indices" : 1,
                    "material" : 0
                }
            ]
        },
        {
            "name" : "Curve.020",
            "primitives" : [
                {
                    "attributes" : {
                        "POSITION" : 2
                    },
                    "indices" : 3,
                    "material" : 0
                }
            ]
        }
    ],
    "accessors" : [
        {
            "bufferView" : 0,
            "componentType" : 5126,
            "count" : 20648,
            "max" : [
                2.027282953262329,
                2.270186185836792,
                0.6000000238418579
            ],
            "min" : [
                -1.9769009351730347,
                -2.2862021923065186,
                -0.6000000238418579
            ],
            "type" : "VEC3"
        },
        {
            "bufferView" : 1,
            "componentType" : 5123,
            "count" : 61944,
            "type" : "SCALAR"
        },
        {
            "bufferView" : 2,
            "componentType" : 5126,
            "count" : 1732,
            "max" : [
                0.5070738792419434,
                0.5088809728622437,
                0.30000001192092896
            ],
            "min" : [
                -0.45687630772590637,
                -0.5404257774353027,
                -0.30000001192092896
            ],
            "type" : "VEC3"
        },
        {
            "bufferView" : 3,
            "componentType" : 5123,
            "count" : 5196,
            "type" : "SCALAR"
        }
    ],
    "bufferViews" : [
        {
            "buffer" : 0,
            "byteLength" : 247776,
            "byteOffset" : 0
        },
        {
            "buffer" : 0,
            "byteLength" : 123888,
            "byteOffset" : 247776
        },
        {
            "buffer" : 0,
            "byteLength" : 20784,
            "byteOffset" : 371664
        },
        {
            "buffer" : 0,
            "byteLength" : 10392,
            "byteOffset" : 392448
        }
    ],
    "buffers" : [
        {
            "byteLength" : 402840,
            "uri" : "data:application/octet-stream;base64,"
        }
    ]
}
