{
    "asset" : {
        "generator" : "Khronos glTF Blender I/O v1.6.16",
        "version" : "2.0"
    },
    "scene" : 0,
    "scenes" : [
        {
            "name" : "Scene",
            "nodes" : [
                0
            ]
        }
    ],
    "nodes" : [
        {
            "mesh" : 0,
            "name" : "Curve.014"
        }
    ],
    "materials" : [
        {
            "doubleSided" : true,
            "name" : "SVGMat.017",
            "pbrMetallicRoughness" : {
                "baseColorFactor" : [
                    0,
                    0.7,
                    0,
                    1
                ],
                "metallicFactor" : 0,
                "roughnessFactor" : 0.4000000059604645
            }
        }
    ],
    "meshes" : [
        {
            "name" : "Curve.021",
            "primitives" : [
                {
                    "attributes" : {
                        "POSITION" : 0
                    },
                    "indices" : 1,
                    "material" : 0
                }
            ]
        }
    ],
    "accessors" : [
        {
            "bufferView" : 0,
            "componentType" : 5126,
            "count" : 1948,
            "max" : [
                1.7729016542434692,
                2.6333909034729004,
                0.40000003576278687
            ],
            "min" : [
                -1.8136725425720215,
                -2.4456400871276855,
                -0.40000003576278687
            ],
            "type" : "VEC3"
        },
        {
            "bufferView" : 1,
            "componentType" : 5123,
            "count" : 5844,
            "type" : "SCALAR"
        }
    ],
    "bufferViews" : [
        {
            "buffer" : 0,
            "byteLength" : 23376,
            "byteOffset" : 0
        },
        {
            "buffer" : 0,
            "byteLength" : 11688,
            "byteOffset" : 23376
        }
    ],
    "buffers" : [
        {
            "byteLength" : 35064,
            "uri" : "data:application/octet-stream;base64,"
        }
    ]
}
