{
    "asset" : {
        "generator" : "Khronos glTF Blender I/O v1.6.16",
        "version" : "2.0"
    },
    "scene" : 0,
    "scenes" : [
        {
            "name" : "Scene",
            "nodes" : [
                0,
                1,
                2,
                3,
                4,
                5,
                6
            ]
        }
    ],
    "nodes" : [
        {
            "mesh" : 0,
            "name" : "Curve.001",
            "rotation" : [
                0.7071067690849304,
                0,
                0,
                0.7071068286895752
            ],
            "translation" : [
                0,
                0,
                0.2808564305305481
            ]
        },
        {
            "mesh" : 1,
            "name" : "Curve.010",
            "rotation" : [
                0.7071067690849304,
                0,
                0,
                0.7071068286895752
            ],
            "translation" : [
                0.0023057367652654648,
                0.0026078224182128906,
                0.500718891620636
            ]
        },
        {
            "mesh" : 2,
            "name" : "Curve.011",
            "rotation" : [
                0.7071067690849304,
                0,
                0,
                0.7071068286895752
            ],
            "translation" : [
                -0.32220911979675293,
                0.002607792615890503,
                0.18141360580921173
            ]
        },
        {
            "mesh" : 3,
            "name" : "Curve.012",
            "rotation" : [
                0.7071067690849304,
                0,
                0,
                0.7071068286895752
            ],
            "translation" : [
                0.321119099855423,
                0.002607792615890503,
                0.18141360580921173
            ]
        },
        {
            "mesh" : 4,
            "name" : "Curve.013",
            "rotation" : [
                0.7071067690849304,
                0,
                0,
                0.7071068286895752
            ],
            "translation" : [
                -0.0005450358148664236,
                0.0026077628135681152,
                -0.40502649545669556
            ]
        },
        {
            "mesh" : 5,
            "name" : "Curve.014",
            "rotation" : [
                0.7071067690849304,
                0,
                0,
                0.7071068286895752
            ],
            "translation" : [
                -0.0005450354074127972,
                0.0026077628135681152,
                -0.518531084060669
            ]
        },
        {
            "mesh" : 6,
            "name" : "Curve.015",
            "rotation" : [
                0.7071067690849304,
                0,
                0,
                0.7071068286895752
            ],
            "translation" : [
                -0.00057077722158283,
                0.0026077628135681152,
                -0.2208450585603714
            ]
        }
    ],
    "materials" : [
        {
            "doubleSided" : true,
            "name" : "SVGMat.015",
            "pbrMetallicRoughness" : {
                "baseColorFactor" : [
                    0.68668532371521,
                    0.6938717365264893,
                    0.7230551242828369,
                    1
                ],
                "metallicFactor" : 0,
                "roughnessFactor" : 0.4000000059604645
            }
        },
        {
            "doubleSided" : true,
            "name" : "SVGMat.016",
            "pbrMetallicRoughness" : {
                "baseColorFactor" : [
                    0.05612849071621895,
                    0.05612849071621895,
                    0.06301001459360123,
                    1
                ],
                "metallicFactor" : 0,
                "roughnessFactor" : 0.4000000059604645
            }
        },
        {
            "doubleSided" : true,
            "name" : "SVGMat.017",
            "pbrMetallicRoughness" : {
                "baseColorFactor" : [
                    0.026241222396492958,
                    0.026241222396492958,
                    0.026241222396492958,
                    1
                ],
                "metallicFactor" : 0,
                "roughnessFactor" : 0.4000000059604645
            }
        },
        {
            "doubleSided" : true,
            "name" : "SVGMat.018",
            "pbrMetallicRoughness" : {
                "baseColorFactor" : [
                    0.026241222396492958,
                    0.026241222396492958,
                    0.026241222396492958,
                    1
                ],
                "metallicFactor" : 0,
                "roughnessFactor" : 0.4000000059604645
            }
        },
        {
            "doubleSided" : true,
            "name" : "SVGMat.019",
            "pbrMetallicRoughness" : {
                "baseColorFactor" : [
                    0.05612849071621895,
                    0.05612849071621895,
                    0.06301001459360123,
                    1
                ],
                "metallicFactor" : 0,
                "roughnessFactor" : 0.4000000059604645
            }
        },
        {
            "doubleSided" : true,
            "name" : "SVGMat.020",
            "pbrMetallicRoughness" : {
                "baseColorFactor" : [
                    0.05612849071621895,
                    0.05612849071621895,
                    0.06301001459360123,
                    1
                ],
                "metallicFactor" : 0,
                "roughnessFactor" : 0.4000000059604645
            }
        },
        {
            "doubleSided" : true,
            "name" : "SVGMat.021",
            "pbrMetallicRoughness" : {
                "baseColorFactor" : [
                    0.04817182570695877,
                    0.02518685907125473,
                    0.020288562402129173,
                    1
                ],
                "metallicFactor" : 0,
                "roughnessFactor" : 0.4000000059604645
            }
        }
    ],
    "meshes" : [
        {
            "name" : "Curve.017",
            "primitives" : [
                {
                    "attributes" : {
                        "POSITION" : 0
                    },
                    "indices" : 1,
                    "material" : 0
                }
            ]
        },
        {
            "name" : "Curve.018",
            "primitives" : [
                {
                    "attributes" : {
                        "POSITION" : 2
                    },
                    "indices" : 3,
                    "material" : 1
                }
            ]
        },
        {
            "name" : "Curve.019",
            "primitives" : [
                {
                    "attributes" : {
                        "POSITION" : 4
                    },
                    "indices" : 5,
                    "material" : 2
                }
            ]
        },
        {
            "name" : "Curve.020",
            "primitives" : [
                {
                    "attributes" : {
                        "POSITION" : 6
                    },
                    "indices" : 7,
                    "material" : 3
                }
            ]
        },
        {
            "name" : "Curve.021",
            "primitives" : [
                {
                    "attributes" : {
                        "POSITION" : 8
                    },
                    "indices" : 9,
                    "material" : 4
                }
            ]
        },
        {
            "name" : "Curve.022",
            "primitives" : [
                {
                    "attributes" : {
                        "POSITION" : 10
                    },
                    "indices" : 11,
                    "material" : 5
                }
            ]
        },
        {
            "name" : "Curve.023",
            "primitives" : [
                {
                    "attributes" : {
                        "POSITION" : 12
                    },
                    "indices" : 13,
                    "material" : 6
                }
            ]
        }
    ],
    "accessors" : [
        {
            "bufferView" : 0,
            "componentType" : 5126,
            "count" : 1344,
            "max" : [
                0.9595075845718384,
                0.6144189238548279,
                0.12067744880914688
            ],
            "min" : [
                -0.9595075845718384,
                -1.1154847145080566,
                -0.12067744880914688
            ],
            "type" : "VEC3"
        },
        {
            "bufferView" : 1,
            "componentType" : 5123,
            "count" : 6900,
            "type" : "SCALAR"
        },
        {
            "bufferView" : 2,
            "componentType" : 5126,
            "count" : 4032,
            "max" : [
                0.9187911748886108,
                0.5830419063568115,
                0.13408605754375458
            ],
            "min" : [
                -0.9245113730430603,
                -0.6921522617340088,
                -0.13408605754375458
            ],
            "type" : "VEC3"
        },
        {
            "bufferView" : 3,
            "componentType" : 5123,
            "count" : 20688,
            "type" : "SCALAR"
        },
        {
            "bufferView" : 4,
            "componentType" : 5126,
            "count" : 288,
            "max" : [
                0.0702032521367073,
                0.07019123435020447,
                0.14749465882778168
            ],
            "min" : [
                -0.0702032521367073,
                -0.07019123435020447,
                -0.14749465882778168
            ],
            "type" : "VEC3"
        },
        {
            "bufferView" : 5,
            "componentType" : 5123,
            "count" : 1140,
            "type" : "SCALAR"
        },
        {
            "bufferView" : 6,
            "componentType" : 5126,
            "count" : 672,
            "max" : [
                0.0702032521367073,
                0.07019123435020447,
                0.14749465882778168
            ],
            "min" : [
                -0.0702032521367073,
                -0.07019123435020447,
                -0.14749465882778168
            ],
            "type" : "VEC3"
        },
        {
            "bufferView" : 7,
            "componentType" : 5123,
            "count" : 3444,
            "type" : "SCALAR"
        },
        {
            "bufferView" : 8,
            "componentType" : 5126,
            "count" : 960,
            "max" : [
                0.051251452416181564,
                0.16475529968738556,
                0.14749465882778168
            ],
            "min" : [
                -0.05125143378973007,
                -0.16475531458854675,
                -0.14749465882778168
            ],
            "type" : "VEC3"
        },
        {
            "bufferView" : 9,
            "componentType" : 5123,
            "count" : 4308,
            "type" : "SCALAR"
        },
        {
            "bufferView" : 10,
            "componentType" : 5126,
            "count" : 654,
            "max" : [
                0.2404729574918747,
                0.05124345049262047,
                0.14749465882778168
            ],
            "min" : [
                -0.2404729425907135,
                -0.05124345049262047,
                -0.14749465882778168
            ],
            "type" : "VEC3"
        },
        {
            "bufferView" : 11,
            "componentType" : 5123,
            "count" : 2604,
            "type" : "SCALAR"
        },
        {
            "bufferView" : 12,
            "componentType" : 5126,
            "count" : 1694,
            "max" : [
                0.1806308627128601,
                0.12462617456912994,
                0.20112909376621246
            ],
            "min" : [
                -0.18056385219097137,
                -0.16020923852920532,
                -0.20112909376621246
            ],
            "type" : "VEC3"
        },
        {
            "bufferView" : 13,
            "componentType" : 5123,
            "count" : 8700,
            "type" : "SCALAR"
        }
    ],
    "bufferViews" : [
        {
            "buffer" : 0,
            "byteLength" : 16128,
            "byteOffset" : 0
        },
        {
            "buffer" : 0,
            "byteLength" : 13800,
            "byteOffset" : 16128
        },
        {
            "buffer" : 0,
            "byteLength" : 48384,
            "byteOffset" : 29928
        },
        {
            "buffer" : 0,
            "byteLength" : 41376,
            "byteOffset" : 78312
        },
        {
            "buffer" : 0,
            "byteLength" : 3456,
            "byteOffset" : 119688
        },
        {
            "buffer" : 0,
            "byteLength" : 2280,
            "byteOffset" : 123144
        },
        {
            "buffer" : 0,
            "byteLength" : 8064,
            "byteOffset" : 125424
        },
        {
            "buffer" : 0,
            "byteLength" : 6888,
            "byteOffset" : 133488
        },
        {
            "buffer" : 0,
            "byteLength" : 11520,
            "byteOffset" : 140376
        },
        {
            "buffer" : 0,
            "byteLength" : 8616,
            "byteOffset" : 151896
        },
        {
            "buffer" : 0,
            "byteLength" : 7848,
            "byteOffset" : 160512
        },
        {
            "buffer" : 0,
            "byteLength" : 5208,
            "byteOffset" : 168360
        },
        {
            "buffer" : 0,
            "byteLength" : 20328,
            "byteOffset" : 173568
        },
        {
            "buffer" : 0,
            "byteLength" : 17400,
            "byteOffset" : 193896
        }
    ],
    "buffers" : [
        {
            "byteLength" : 211296,
            "uri" : "data:application/octet-stream;base64,"
        }
    ]
}
