{
    "asset" : {
        "generator" : "Khronos glTF Blender I/O v1.6.16",
        "version" : "2.0"
    },
    "scene" : 0,
    "scenes" : [
        {
            "name" : "Scene",
            "nodes" : [
                0
            ]
        }
    ],
    "nodes" : [
        {
            "mesh" : 0,
            "name" : "Curve.011"
        }
    ],
    "materials" : [
        {
            "doubleSided" : true,
            "name" : "SVGMat.009",
            "pbrMetallicRoughness" : {
                "baseColorFactor" : [
                    1,
                    0.8409264087677002,
                    0,
                    1
                ],
                "metallicFactor" : 0,
                "roughnessFactor" : 0.37435898184776306
            }
        }
    ],
    "meshes" : [
        {
            "name" : "Curve.014",
            "primitives" : [
                {
                    "attributes" : {
                        "POSITION" : 0
                    },
                    "indices" : 1,
                    "material" : 0
                }
            ]
        }
    ],
    "accessors" : [
        {
            "bufferView" : 0,
            "componentType" : 5126,
            "count" : 5100,
            "max" : [
                12.914827346801758,
                12.658227920532227,
                2.2885234355926514
            ],
            "min" : [
                -12.506752014160156,
                -12.769767761230469,
                -2.2885234355926514
            ],
            "type" : "VEC3"
        },
        {
            "bufferView" : 1,
            "componentType" : 5123,
            "count" : 15144,
            "type" : "SCALAR"
        }
    ],
    "bufferViews" : [
        {
            "buffer" : 0,
            "byteLength" : 61200,
            "byteOffset" : 0
        },
        {
            "buffer" : 0,
            "byteLength" : 30288,
            "byteOffset" : 61200
        }
    ],
    "buffers" : [
        {
            "byteLength" : 91488,
            "uri" : "data:application/octet-stream;base64,"
        }
    ]
}
