{
    "asset" : {
        "generator" : "Khronos glTF Blender I/O v1.6.16",
        "version" : "2.0"
    },
    "scene" : 0,
    "scenes" : [
        {
            "name" : "Scene",
            "nodes" : [
                0
            ]
        }
    ],
    "nodes" : [
        {
            "mesh" : 0,
            "name" : "Icosphere.002"
        }
    ],
    "materials" : [
        {
            "doubleSided" : true,
            "name" : "yellow.002",
            "pbrMetallicRoughness" : {
                "baseColorFactor" : [
                    0.9999832510948181,
                    0.4010259509086609,
                    0,
                    1
                ],
                "metallicFactor" : 0,
                "roughnessFactor" : 0.5
            }
        },
        {
            "doubleSided" : true,
            "name" : "brown.004",
            "pbrMetallicRoughness" : {
                "baseColorFactor" : [
                    0.08001135289669037,
                    0.030381744727492332,
                    0.012177839875221252,
                    1
                ],
                "metallicFactor" : 0,
                "roughnessFactor" : 0.5
            }
        }
    ],
    "meshes" : [
        {
            "name" : "Icosphere.002",
            "primitives" : [
                {
                    "attributes" : {
                        "POSITION" : 0,
                        "NORMAL" : 1
                    },
                    "indices" : 2,
                    "material" : 0
                },
                {
                    "attributes" : {
                        "POSITION" : 3,
                        "NORMAL" : 4
                    },
                    "indices" : 5,
                    "material" : 1
                }
            ]
        }
    ],
    "accessors" : [
        {
            "bufferView" : 0,
            "componentType" : 5126,
            "count" : 184,
            "max" : [
                2.0522828102111816,
                1.470597743988037,
                0.40106120705604553
            ],
            "min" : [
                -2.2878472805023193,
                -0.46310535073280334,
                -0.40106120705604553
            ],
            "type" : "VEC3"
        },
        {
            "bufferView" : 1,
            "componentType" : 5126,
            "count" : 184,
            "type" : "VEC3"
        },
        {
            "bufferView" : 2,
            "componentType" : 5123,
            "count" : 300,
            "type" : "SCALAR"
        },
        {
            "bufferView" : 3,
            "componentType" : 5126,
            "count" : 12,
            "max" : [
                2.0522828102111816,
                1.470597743988037,
                0.15003973245620728
            ],
            "min" : [
                -2.2878472805023193,
                0.3562569320201874,
                -0.1500394493341446
            ],
            "type" : "VEC3"
        },
        {
            "bufferView" : 4,
            "componentType" : 5126,
            "count" : 12,
            "type" : "VEC3"
        },
        {
            "bufferView" : 5,
            "componentType" : 5123,
            "count" : 24,
            "type" : "SCALAR"
        }
    ],
    "bufferViews" : [
        {
            "buffer" : 0,
            "byteLength" : 2208,
            "byteOffset" : 0
        },
        {
            "buffer" : 0,
            "byteLength" : 2208,
            "byteOffset" : 2208
        },
        {
            "buffer" : 0,
            "byteLength" : 600,
            "byteOffset" : 4416
        },
        {
            "buffer" : 0,
            "byteLength" : 144,
            "byteOffset" : 5016
        },
        {
            "buffer" : 0,
            "byteLength" : 144,
            "byteOffset" : 5160
        },
        {
            "buffer" : 0,
            "byteLength" : 48,
            "byteOffset" : 5304
        }
    ],
    "buffers" : [
        {
            "byteLength" : 5352,
            "uri" : "data:application/octet-stream;base64,"
        }
    ]
}
