{
    "asset" : {
        "generator" : "Khronos glTF Blender I/O v1.6.16",
        "version" : "2.0"
    },
    "scene" : 0,
    "scenes" : [
        {
            "name" : "Scene",
            "nodes" : [
                0
            ]
        }
    ],
    "nodes" : [
        {
            "mesh" : 0,
            "name" : "Icosphere"
        }
    ],
    "materials" : [
        {
            "doubleSided" : true,
            "name" : "yellow",
            "pbrMetallicRoughness" : {
                "baseColorFactor" : [
                    0.9999832510948181,
                    0.09118896722793579,
                    0,
                    1
                ],
                "metallicFactor" : 0,
                "roughnessFactor" : 0.5
            }
        },
        {
            "doubleSided" : true,
            "name" : "brown.002",
            "pbrMetallicRoughness" : {
                "baseColorFactor" : [
                    0.08001135289669037,
                    0.030381744727492332,
                    0.012177839875221252,
                    1
                ],
                "metallicFactor" : 0,
                "roughnessFactor" : 0.5
            }
        }
    ],
    "meshes" : [
        {
            "name" : "Icosphere",
            "primitives" : [
                {
                    "attributes" : {
                        "POSITION" : 0,
                        "NORMAL" : 1
                    },
                    "indices" : 2,
                    "material" : 0
                },
                {
                    "attributes" : {
                        "POSITION" : 3,
                        "NORMAL" : 4
                    },
                    "indices" : 5,
                    "material" : 1
                }
            ]
        }
    ],
    "accessors" : [
        {
            "bufferView" : 0,
            "componentType" : 5126,
            "count" : 216,
            "max" : [
                1.4664571285247803,
                1.2948817014694214,
                1.4219157695770264
            ],
            "min" : [
                -1.474051833152771,
                -1.6079740524291992,
                -1.4339196681976318
            ],
            "type" : "VEC3"
        },
        {
            "bufferView" : 1,
            "componentType" : 5126,
            "count" : 216,
            "type" : "VEC3"
        },
        {
            "bufferView" : 2,
            "componentType" : 5123,
            "count" : 270,
            "type" : "SCALAR"
        },
        {
            "bufferView" : 3,
            "componentType" : 5126,
            "count" : 24,
            "max" : [
                0.12191643565893173,
                1.6875463724136353,
                0.04025857523083687
            ],
            "min" : [
                -0.05005757510662079,
                0.8234219551086426,
                -0.12345805019140244
            ],
            "type" : "VEC3"
        },
        {
            "bufferView" : 4,
            "componentType" : 5126,
            "count" : 24,
            "type" : "VEC3"
        },
        {
            "bufferView" : 5,
            "componentType" : 5123,
            "count" : 36,
            "type" : "SCALAR"
        }
    ],
    "bufferViews" : [
        {
            "buffer" : 0,
            "byteLength" : 2592,
            "byteOffset" : 0
        },
        {
            "buffer" : 0,
            "byteLength" : 2592,
            "byteOffset" : 2592
        },
        {
            "buffer" : 0,
            "byteLength" : 540,
            "byteOffset" : 5184
        },
        {
            "buffer" : 0,
            "byteLength" : 288,
            "byteOffset" : 5724
        },
        {
            "buffer" : 0,
            "byteLength" : 288,
            "byteOffset" : 6012
        },
        {
            "buffer" : 0,
            "byteLength" : 72,
            "byteOffset" : 6300
        }
    ],
    "buffers" : [
        {
            "byteLength" : 6372,
            "uri" : "data:application/octet-stream;base64,"
        }
    ]
}
