{
    "asset" : {
        "generator" : "Khronos glTF Blender I/O v1.6.16",
        "version" : "2.0"
    },
    "scene" : 0,
    "scenes" : [
        {
            "name" : "Scene",
            "nodes" : [
                0
            ]
        }
    ],
    "nodes" : [
        {
            "mesh" : 0,
            "name" : "Icosphere.001"
        }
    ],
    "materials" : [
        {
            "doubleSided" : true,
            "name" : "yellow.001",
            "pbrMetallicRoughness" : {
                "baseColorFactor" : [
                    0.5704696774482727,
                    0.39798250794410706,
                    0.01870657689869404,
                    1
                ],
                "metallicFactor" : 0,
                "roughnessFactor" : 0
            }
        },
        {
            "doubleSided" : true,
            "name" : "brown.003",
            "pbrMetallicRoughness" : {
                "baseColorFactor" : [
                    0.08001135289669037,
                    0.030381744727492332,
                    0.012177839875221252,
                    1
                ],
                "metallicFactor" : 0,
                "roughnessFactor" : 0.5
            }
        }
    ],
    "meshes" : [
        {
            "name" : "Icosphere.001",
            "primitives" : [
                {
                    "attributes" : {
                        "POSITION" : 0,
                        "NORMAL" : 1
                    },
                    "indices" : 2,
                    "material" : 0
                },
                {
                    "attributes" : {
                        "POSITION" : 3,
                        "NORMAL" : 4
                    },
                    "indices" : 5,
                    "material" : 1
                }
            ]
        }
    ],
    "accessors" : [
        {
            "bufferView" : 0,
            "componentType" : 5126,
            "count" : 120,
            "max" : [
                1.1623502969741821,
                2.3770251274108887,
                1.1103415489196777
            ],
            "min" : [
                -1.172463059425354,
                -1.4139209985733032,
                -1.1101751327514648
            ],
            "type" : "VEC3"
        },
        {
            "bufferView" : 1,
            "componentType" : 5126,
            "count" : 120,
            "type" : "VEC3"
        },
        {
            "bufferView" : 2,
            "componentType" : 5123,
            "count" : 150,
            "type" : "SCALAR"
        },
        {
            "bufferView" : 3,
            "componentType" : 5126,
            "count" : 40,
            "max" : [
                0.23107749223709106,
                2.736349105834961,
                0.07373812049627304
            ],
            "min" : [
                -0.07871171832084656,
                2.2891275882720947,
                -0.07357198745012283
            ],
            "type" : "VEC3"
        },
        {
            "bufferView" : 4,
            "componentType" : 5126,
            "count" : 40,
            "type" : "VEC3"
        },
        {
            "bufferView" : 5,
            "componentType" : 5123,
            "count" : 60,
            "type" : "SCALAR"
        }
    ],
    "bufferViews" : [
        {
            "buffer" : 0,
            "byteLength" : 1440,
            "byteOffset" : 0
        },
        {
            "buffer" : 0,
            "byteLength" : 1440,
            "byteOffset" : 1440
        },
        {
            "buffer" : 0,
            "byteLength" : 300,
            "byteOffset" : 2880
        },
        {
            "buffer" : 0,
            "byteLength" : 480,
            "byteOffset" : 3180
        },
        {
            "buffer" : 0,
            "byteLength" : 480,
            "byteOffset" : 3660
        },
        {
            "buffer" : 0,
            "byteLength" : 120,
            "byteOffset" : 4140
        }
    ],
    "buffers" : [
        {
            "byteLength" : 4260,
            "uri" : "data:application/octet-stream;base64,"
        }
    ]
}
