{
    "asset" : {
        "generator" : "Khronos glTF Blender I/O v1.1.46",
        "version" : "2.0"
    },
    "scene" : 0,
    "scenes" : [
        {
            "name" : "Scene",
            "nodes" : [
                0
            ]
        }
    ],
    "nodes" : [
        {
            "mesh" : 0,
            "name" : "pill",
            "scale" : [
                2,
                1,
                1
            ]
        }
    ],
    "materials" : [
        {
            "doubleSided" : true,
            "name" : "Pill_1",
            "pbrMetallicRoughness" : {}
        }
    ],
    "meshes" : [
        {
            "name" : "Cube.002",
            "primitives" : [
                {
                    "attributes" : {
                        "POSITION" : 0,
                        "NORMAL" : 1,
                        "COLOR_0" : 2
                    },
                    "indices" : 3,
                    "material" : 0
                }
            ]
        }
    ],
    "accessors" : [
        {
            "bufferView" : 0,
            "componentType" : 5126,
            "count" : 3714,
            "max" : [
                1.2332969903945923,
                1.0436196327209473,
                0.6998254656791687
            ],
            "min" : [
                -1.2332969903945923,
                -1.0436196327209473,
                -0.6998254656791687
            ],
            "type" : "VEC3"
        },
        {
            "bufferView" : 1,
            "componentType" : 5126,
            "count" : 3714,
            "type" : "VEC3"
        },
        {
            "bufferView" : 2,
            "componentType" : 5126,
            "count" : 3714,
            "type" : "VEC4"
        },
        {
            "bufferView" : 3,
            "componentType" : 5123,
            "count" : 22272,
            "type" : "SCALAR"
        }
    ],
    "bufferViews" : [
        {
            "buffer" : 0,
            "byteLength" : 44568,
            "byteOffset" : 0
        },
        {
            "buffer" : 0,
            "byteLength" : 44568,
            "byteOffset" : 44568
        },
        {
            "buffer" : 0,
            "byteLength" : 59424,
            "byteOffset" : 89136
        },
        {
            "buffer" : 0,
            "byteLength" : 44544,
            "byteOffset" : 148560
        }
    ],
    "buffers" : [
        {
            "byteLength" : 193104,
            "uri" : "scene.bin"
        }
    ]
}
